# AST/ASF file generated using VICON BodyLanguage
# -----------------------------------------------
:version 1.10
:name VICON
:units
  mass 1.0
  length 0.45
  angle deg
:documentation
   .ast/.asf automatically generated from VICON data using
   VICON BodyBuilder and BodyLanguage model FoxedUp or BRILLIANT.MOD
:root
   order TX TY TZ RX RY RZ
   axis XYZ
   position 0 0 0  
   orientation 0 0 0 
:bonedata
  begin
     id 1 
     name lhipjoint
     direction 0.566809 -0.746272 0.349008 
     length 2.40479 
     axis 0 0 0  XYZ
  end
  begin
     id 2 
     name lfemur
     direction 0.34202 -0.939693 0  
     length 7.1578  
     axis 0 0 20  XYZ
    dof rx ry rz
    limits (-160.0 20.0)
           (-70.0 70.0)
           (-60.0 70.0)
  end
  begin
     id 3 
     name ltibia
     direction 0.34202 -0.939693 0   
     length 7.49137   
     axis 0 0 20   XYZ
    dof rx
    limits (-10.0 170.0)
  end
  begin
     id 4 
     name lfoot
     direction 0.0665746 -0.182912 0.980873   
     length 2.36784   
     axis -90 7.62852e-016 20   XYZ
    dof rx rz
    limits (-45.0 90.0)
           (-70.0 20.0)
  end
  begin
     id 5 
     name ltoes
     direction 1.53601e-011 -4.22058e-011 1   
     length 1.18966   
     axis -90 7.62852e-016 20   XYZ
    dof rx
    limits (-90.0 20.0)
  end
  begin
     id 6 
     name rhipjoint
     direction -0.550236 -0.756381 0.353735   
     length 2.37265  
     axis 0 0 0  XYZ 
  end
  begin
     id 7 
     name rfemur
     direction -0.34202 -0.939693 0   
     length 7.43386   
     axis 0 0 -20   XYZ
    dof rx ry rz
    limits (-160.0 20.0)
           (-70.0 70.0)
           (-70.0 60.0)
  end
  begin
     id 8 
     name rtibia
     direction -0.34202 -0.939693 0   
     length 7.50908   
     axis 0 0 -20   XYZ
    dof rx
    limits (-10.0 170.0)
 end
 begin
     id 9 
     name rfoot
     direction -0.0683029 -0.187661 0.979856   
     length 2.41173  
     axis -90 -7.62852e-016 -20   XYZ
    dof rx rz
    limits (-45.0 90.0)
           (-20.0 70.0)
  end
  begin
     id 10 
     name rtoes
     direction -1.53528e-011 -4.21968e-011 1   
     length 1.21082   
     axis -90 -7.62852e-016 -20   XYZ
    dof rx
    limits (-90.0 20.0)
  end
  begin
     id 11 
     name lowerback
     direction 0.013823 0.995423 -0.0945635   
     length 2.04495   
     axis 0 0 0   XYZ
    dof rx ry rz
    limits (-20.0 45.0)
           (-30.0 30.0)
           (-30.0 30.0)
  end
  begin
     id 12 
     name upperback
     direction 0.0276657 0.9994 -0.020853   
     length 2.05008   
     axis 0 0 0   XYZ
    dof rx ry rz
    limits (-20.0 45.0)
           (-30.0 30.0)
           (-30.0 30.0)
  end
  begin
     id 13 
     name thorax
     direction 0.019782 0.999531 0.0233827   
     length 2.06488   
     axis 0 0 0   XYZ
    dof rx ry rz
    limits (-20.0 45.0)
           (-30.0 30.0)
           (-30.0 30.0)
  end
  begin
     id 14 
     name lowerneck
     direction -0.0308541 0.994709 0.0979874   
     length 1.75553   
     axis 0 0 0   XYZ
    dof rx ry rz
    limits (-20.0 45.0)
           (-30.0 30.0)
           (-30.0 30.0)
  end
  begin
     id 15 
     name upperneck
     direction 0.0588398 0.995804 -0.0700903   
     length 1.76878   
     axis 0 0 0   XYZ
    dof rx ry rz
    limits (-20.0 45.0)
           (-30.0 30.0)
           (-30.0 30.0)
  end
  begin
     id 16
     name head
     direction 0.0209966 0.999159 -0.0352225  
     length 1.77193  
     axis 0 0 0   XYZ
    dof rx ry rz
    limits (-20.0 45.0)
           (-30.0 30.0)
           (-30.0 30.0)
  end
  begin
     id 17 
     name lclavicle
     direction 0.938182 0.335073 -0.0868338  
     length 3.58396  
     axis 0 0 0   XYZ
    dof ry rz
    limits (-20.0 10.0)
           (0.0 20.0)
  end
  begin
     id 18 
     name lhumerus
     direction 1 -4.48971e-011 -1.26313e-017   
     length 4.983   
     axis 180 -30 -90   XYZ
    dof rx ry rz
    limits (-60.0 90.0)
           (-90.0 90.0)
           (-90.0 90.0)
  end
  begin
     id 19
     name lradius
     direction 1 -4.48948e-011 -5.89033e-027   
     length 3.48356   
     axis 180 -30 -90   XYZ
    dof rx
    limits (-10.0 170.0)
  end
  begin
     id 20
     name lwrist
     direction 1 -4.48977e-011 -1.48983e-026   
     length 1.74178   
     axis 9.0955e-015 90 90   XYZ
    dof ry
    limits (-180.0 0.0)
 end
  begin
     id 21 
     name lhand
     direction 1 -4.49046e-011 -2.98066e-026   
     length 0.715259   
     axis 1.90115e-014 90 90   XYZ
    dof rx rz
    limits (-90.0 90.0)
           (-45.0 45.0)
  end
  begin
     id 22 
     name lfingers
     direction 1 -4.48907e-011 -5.95731e-026   
     length 0.576661   
     axis 3.80223e-014 90 90   XYZ
    dof rx
    limits (0.0 90.0)
  end
  begin
     id 23
     name lthumb
     direction 0.707107 -6.34963e-011 0.707107   
     length 0.827973   
     axis -90 45 -3.84942e-014   XYZ
    dof rx rz
    limits (-45.0 45.0)
           (-45.0 45.0)
  end
  begin
     id 24 
     name rclavicle
     direction -0.909637 0.398485 -0.11735   
     length 3.44819  
     axis 0 0 0   XYZ 
    dof ry rz
    limits (-10.0 20.0)
           (-20.0 0.0)
  end
  begin
     id 25 
     name rhumerus
     direction -1 -4.48978e-011 -1.09333e-027  
     length 5.2419   
     axis 180 30 90   XYZ
    dof rx ry rz
    limits (-90.0 60.0)
           (-90.0 90.0)
           (-90.0 90.0)
  end
  begin
     id 26 
     name rradius
     direction -1 -4.48953e-011 -7.61841e-027   
     length 3.44417   
     axis 180 30 90   XYZ
    dof rx
    limits (-10.0 170.0)
  end
  begin
     id 27 
     name rwrist
     direction -1 -4.48977e-011 -1.48983e-026   
     length 1.72209   
     axis 9.0955e-015 -90 -90   XYZ
    dof ry
    limits (-180.0 0.0)
  end
  begin
     id 28
     name rhand
     direction -1 -4.49027e-011 -2.98038e-026   
     length 0.622529   
     axis 1.90115e-014 -90 -90   XYZ
    dof rx rz
    limits (-90.0 90.0)
           (-45.0 45.0)
  end
  begin
     id 29
     name rfingers
     direction -1 -4.48838e-011 -5.95531e-026   
     length 0.501899   
     axis 3.80223e-014 -90 -90   XYZ
    dof rx
    limits (0.0 90.0)
  end
  begin
     id 30
     name rthumb
     direction -0.707107 -6.34937e-011 0.707107   
     length 0.720629   
     axis -90 -45 3.84942e-014   XYZ
    dof rx rz
    limits (-45.0 45.0)
           (-45.0 45.0)
  end
:hierarchy
  begin
    root lhipjoint rhipjoint lowerback
    lhipjoint lfemur
    lfemur ltibia
    ltibia lfoot
    lfoot ltoes
    rhipjoint rfemur
    rfemur rtibia
    rtibia rfoot
    rfoot rtoes
    lowerback upperback
    upperback thorax
    thorax lowerneck lclavicle rclavicle
    lowerneck upperneck
    upperneck head
    lclavicle lhumerus
    lhumerus lradius
    lradius lwrist
    lwrist lhand lthumb
    lhand lfingers
    rclavicle rhumerus
    rhumerus rradius
    rradius rwrist
    rwrist rhand rthumb
    rhand rfingers
  end

#!OML:ASF H:\Terrain\Patient Classification 1\PLAYGROUND\JustinFriday\JustinFriday.ASF
:FULLY-SPECIFIED
:DEGREES
82
root 6.96622 17.3417 17.3599 193.256 -77.1624 -189.702
lowerback 9.2646 -2.17153 -6.14808
upperback 1.70836 -3.46552 2.44025
thorax -2.88982 -1.70067 6.41456
lowerneck -5.33512 -6.21814 -8.22636
upperneck -5.10433 -7.90494 6.16249
head -0.0901811 -3.90496 3.25273
rclavicle -5.73494e-014 9.54166e-015
rhumerus -19.9258 18.9167 -86.5969
rradius 26.6796
rwrist -33.9619
rhand -27.0372 -22.4147
rfingers 7.12502
rthumb -0.456013 -52.394
lclavicle -5.73494e-014 9.54166e-015
lhumerus -16.5517 -4.53909 83.0169
lradius 43.1917
lwrist 5.67803
lhand -20.0453 -6.48535
lfingers 7.12502
lthumb 6.29607 23.4011
rfemur -38.2122 3.26395 13.9422
rtibia 25.3778
rfoot -21.0353 -10.2603
rtoes 10.734
lfemur 7.9313 5.39024 -23.8704
ltibia 16.4189
lfoot -22.3628 1.95811
ltoes 4.96162
83
root 6.86542 17.3267 17.3303 192.591 -77.1605 -189.02
lowerback 9.43263 -2.0877 -5.9201
upperback 1.78496 -3.34322 2.43781
thorax -2.93544 -1.64325 6.27726
lowerneck -5.44854 -6.3521 -7.99945
upperneck -4.99753 -8.09141 5.94145
head -0.0431968 -4.00039 3.12258
rclavicle -2.16675e-014 7.55382e-015
rhumerus -19.6318 18.4455 -86.1736
rradius 25.8641
rwrist -33.722
rhand -26.0457 -22.5992
rfingers 7.12502
rthumb 0.501559 -52.5784
lclavicle -2.16675e-014 7.55382e-015
lhumerus -16.2776 -4.8635 83.1012
lradius 43.2177
lwrist 5.60884
lhand -19.7614 -6.92207
lfingers 7.12502
lthumb 6.57012 22.956
rfemur -38.4246 2.56157 14.6653
rtibia 25.7483
rfoot -19.569 -10.0533
rtoes 9.2337
lfemur 8.78787 5.38188 -23.625
ltibia 15.479
lfoot -21.9655 1.77786
ltoes 5.43335
84
root 6.75508 17.3268 17.2976 194.123 -77.1534 -190.727
lowerback 9.54599 -2.04172 -6.15641
upperback 1.97184 -3.31978 2.25418
thorax -2.80372 -1.64246 6.2145
lowerneck -5.59652 -6.54418 -8.05687
upperneck -5.0076 -8.33673 5.96849
head 0.000493857 -4.12235 3.12739
rclavicle 8.45829e-014 -1.23246e-014
rhumerus -19.2631 17.7378 -85.898
rradius 24.9911
rwrist -33.3754
rhand -25.4598 -22.9894
rfingers 7.12502
rthumb 1.06747 -52.9665
lclavicle 8.45829e-014 -1.23246e-014
lhumerus -15.9414 -4.97178 83.1565
lradius 43.2265
lwrist 5.5603
lhand -19.4468 -7.27154
lfingers 7.12502
lthumb 6.87383 22.5969
rfemur -38.444 2.9106 14.0341
rtibia 26.3444
rfoot -19.1857 -9.36746
rtoes 13.306
lfemur 9.88066 5.1153 -23.9906
ltibia 14.4023
lfoot -21.4263 1.74461
ltoes 5.58977
85
root 6.63948 17.3152 17.2624 196.908 -77.2038 -193.912
lowerback 9.76442 -2.08008 -6.81304
upperback 2.23072 -3.45949 2.07982
thorax -2.60319 -1.72825 6.42068
lowerneck -5.85372 -6.67364 -8.44337
upperneck -4.95731 -8.47135 6.13685
head 0.0972406 -4.18325 3.23907
rclavicle 1.00386e-013 -7.95139e-015
rhumerus -19.19 17.5277 -85.9099
rradius 24.3062
rwrist -33.8631
rhand -27.1819 -21.98
rfingers 7.12502
rthumb -0.595776 -51.9589
lclavicle 1.00386e-013 -7.95139e-015
lhumerus -15.7335 -4.91467 83.2126
lradius 43.2773
lwrist 5.51431
lhand -19.6448 -7.17123
lfingers 7.12502
lthumb 6.68272 22.7033
rfemur -38.254 2.18539 13.6156
rtibia 27.085
rfoot -18.0541 -8.37683
rtoes 14.1392
lfemur 11.2432 4.858 -24.6552
ltibia 13.2584
lfoot -20.6922 1.90897
ltoes 4.4448
86
root 6.5238 17.2973 17.2274 198.633 -77.234 -195.916
lowerback 9.96437 -2.05954 -7.24195
upperback 2.4199 -3.49467 2.02742
thorax -2.48617 -1.75869 6.61773
lowerneck -5.93118 -6.71631 -8.70861
upperneck -4.97568 -8.50875 6.18777
head 0.122433 -4.19808 3.30111
rclavicle -1.49089e-015 1.35174e-014
rhumerus -19.2615 17.9014 -85.8297
rradius 23.8141
rwrist -35.4673
rhand -29.4437 -20.3736
rfingers 7.12502
rthumb -2.78022 -50.3353
lclavicle -1.49089e-015 1.35174e-014
lhumerus -15.5884 -4.81875 83.4159
lradius 43.2812
lwrist 5.41481
lhand -19.9491 -7.25335
lfingers 7.12502
lthumb 6.38892 22.6303
rfemur -38.1926 1.44368 13.5786
rtibia 27.9053
rfoot -16.7334 -7.73625
rtoes 14.3057
lfemur 12.6237 5.14282 -24.9213
ltibia 11.8356
lfoot -19.882 2.11125
ltoes 1.54797
87
root 6.40252 17.2989 17.1925 198.377 -77.2975 -195.693
lowerback 9.96238 -2.03903 -7.10343
upperback 2.54776 -3.45456 2.04605
thorax -2.36515 -1.75086 6.54978
lowerneck -5.7804 -6.73653 -8.73245
upperneck -5.18318 -8.54837 6.12774
head 0.0300228 -4.21956 3.29351
rclavicle 1.58034e-014 -1.35174e-014
rhumerus -18.8714 16.2997 -85.1757
rradius 22.665
rwrist -33.0925
rhand -27.5889 -20.5428
rfingers 7.12502
rthumb -0.988836 -50.5203
lclavicle 1.58034e-014 -1.35174e-014
lhumerus -15.419 -4.59522 83.6571
lradius 43.109
lwrist 5.23098
lhand -20.1141 -7.51382
lfingers 7.12502
lthumb 6.22963 22.3746
rfemur -38.1446 2.10182 13.3419
rtibia 28.527
rfoot -16.4375 -7.17363
rtoes 19.5219
lfemur 13.5115 5.13832 -24.7637
ltibia 10.9736
lfoot -19.3485 2.18036
ltoes 0.451602
88
root 6.27491 17.2982 17.1528 198.24 -77.4212 -195.551
lowerback 9.83015 -2.10037 -6.99007
upperback 2.68326 -3.51723 2.02845
thorax -2.14836 -1.79799 6.45947
lowerneck -5.63478 -6.74394 -8.78802
upperneck -5.37445 -8.5695 6.08134
head -0.0554274 -4.23121 3.29693
rclavicle -7.08667e-014 3.22031e-014
rhumerus -18.7036 14.2483 -84.8711
rradius 21.5804
rwrist -30.8145
rhand -25.8208 -20.2907
rfingers 7.12502
rthumb 0.7188 -50.2693
lclavicle -7.08667e-014 3.22031e-014
lhumerus -15.3201 -4.12525 83.7853
lradius 42.9049
lwrist 4.85306
lhand -20.0412 -7.76702
lfingers 7.12502
lthumb 6.3 22.1193
rfemur -37.962 1.85352 13.6169
rtibia 28.7607
rfoot -15.3026 -6.55907
rtoes 20.079
lfemur 13.8574 4.41247 -24.7928
ltibia 11.2255
lfoot -19.3777 2.37321
ltoes 1.1893
89
root 6.14524 17.2777 17.1048 197.82 -77.5602 -195.074
lowerback 9.63725 -2.15393 -6.99529
upperback 2.78913 -3.57453 2.10443
thorax -1.91618 -1.842 6.53251
lowerneck -5.50175 -6.77913 -8.96848
upperneck -5.55652 -8.62456 5.92507
head -0.133337 -4.25737 3.28414
rclavicle 1.99779e-014 0
rhumerus -18.5797 12.2941 -84.4808
rradius 20.4674
rwrist -28.7409
rhand -21.8805 -19.8877
rfingers 7.12502
rthumb 4.52412 -49.8193
lclavicle 1.99779e-014 0
lhumerus -15.4372 -4.28026 83.845
lradius 42.7721
lwrist 5.08378
lhand -19.8511 -7.94501
lfingers 7.12502
lthumb 6.48357 21.9357
rfemur -37.9075 0.26104 14.8754
rtibia 28.9916
rfoot -13.0066 -6.28529
rtoes 12.05
lfemur 14.2607 4.38378 -24.4721
ltibia 11.3314
lfoot -19.3679 2.00202
ltoes 1.33084
90
root 6.01721 17.233 17.057 196.541 -77.7589 -193.795
lowerback 9.62704 -2.1633 -6.85809
upperback 2.87404 -3.57194 2.26095
thorax -1.82046 -1.85032 6.61652
lowerneck -5.65502 -6.79391 -8.52804
upperneck -5.21886 -8.66151 5.42678
head -0.0418314 -4.28038 3.02033
rclavicle 5.51627e-014 -6.36111e-015
rhumerus -18.4625 10.8183 -84.0022
rradius 19.4286
rwrist -27.2767
rhand -22.6834 -20.1128
rfingers 7.12502
rthumb 3.74887 -50.0595
lclavicle 5.51627e-014 -6.36111e-015
lhumerus -15.6201 -4.29879 84.0475
lradius 42.6758
lwrist 5.06289
lhand -19.9017 -7.78693
lfingers 7.12502
lthumb 6.4347 22.0953
rfemur -37.8436 -1.77658 16.7189
rtibia 29.1416
rfoot -9.7372 -6.85325
rtoes -6.18563
lfemur 14.6563 3.83342 -24.1663
ltibia 11.6312
lfoot -19.2592 2.54481
ltoes 0.395747
91
root 5.89023 17.2456 17.0114 196.602 -77.9775 -194.141
lowerback 9.98335 -2.15849 -6.92913
upperback 2.97416 -3.60045 2.28336
thorax -1.90117 -1.86759 6.70194
lowerneck -5.74039 -6.8854 -8.42143
upperneck -4.91994 -8.78494 5.12158
head 0.0563599 -4.34282 2.88384
rclavicle -3.74709e-014 2.34566e-014
rhumerus -18.5859 9.30069 -83.6493
rradius 18.6479
rwrist -26.2325
rhand -25.3234 -19.8034
rfingers 7.12502
rthumb 1.19919 -49.7797
lclavicle -3.74709e-014 2.34566e-014
lhumerus -15.8478 -4.2947 84.3344
lradius 42.4936
lwrist 4.95026
lhand -20.2003 -7.7505
lfingers 7.12502
lthumb 6.14642 22.1403
rfemur -37.1622 -1.06948 16.3381
rtibia 29.369
rfoot -9.82943 -5.98435
rtoes 6.28798
lfemur 15.1596 3.29452 -24.2126
ltibia 12.0302
lfoot -18.906 3.26084
ltoes -1.85944
92
root 5.75923 17.2424 16.962 196.712 -78.1502 -194.412
lowerback 10.2542 -2.16312 -7.02241
upperback 3.01093 -3.63623 2.31974
thorax -1.99709 -1.8845 6.81306
lowerneck -5.70704 -6.96281 -8.41802
upperneck -4.79197 -8.89346 4.89698
head 0.0867638 -4.39751 2.80237
rclavicle 2.94201e-014 -2.62396e-014
rhumerus -18.7504 7.51535 -83.2007
rradius 17.8531
rwrist -24.8042
rhand -26.4808 -19.1863
rfingers 7.12502
rthumb 0.0814146 -49.166
lclavicle 2.94201e-014 -2.62396e-014
lhumerus -16.0978 -3.97973 84.6236
lradius 42.2005
lwrist 4.75695
lhand -20.2642 -7.83565
lfingers 7.12502
lthumb 6.08476 22.057
rfemur -36.8079 -1.12003 16.5233
rtibia 29.6545
rfoot -8.67523 -5.77614
rtoes 6.28094
lfemur 15.7028 2.84651 -24.2107
ltibia 12.1377
lfoot -18.3397 3.51765
ltoes -3.27756
